#!OML:ASF I:\golf\golf\golf 2\Subject 1\2002-09-07\Subject1.ASF
:FULLY-SPECIFIED
:DEGREES
510
root 1.85633 17.8702 -6.98247 6.75711 -6.13232 -7.54415
lowerback -6.35248 0.93267 -2.7563
upperback -1.53619 1.31731 4.59681
thorax 1.80167 0.649211 6.44553
lowerneck -26.1718 -4.46181 -2.68261
upperneck 21.3181 -6.01872 3.04961
head 11.4365 -2.52856 0.529762
rclavicle 2.79987e-014 3.86636e-014
rhumerus -30.2477 -3.94427 -80.5354
rradius 29.465
rwrist -13.0081
rhand -21.8326 8.79379
rfingers 7.12502
rthumb 4.57042 -21.1369
lclavicle 2.79987e-014 3.86636e-014
lhumerus -31.9542 9.82211 82.4832
lradius 30.02
lwrist 9.0945
lhand -10.051 30.7502
lfingers 7.12502
lthumb 15.9346 60.1147
rfemur -15.5222 -0.176531 22.9766
rtibia 30.0809
rfoot -14.58 -5.49179
rtoes -10.5243
lfemur -11.8138 2.37859 -11.9385
ltibia 32.1136
lfoot -19.9627 12.9232
ltoes -9.46715
511
root 1.82179 17.8708 -6.98938 6.88588 -6.05203 -7.51925
lowerback -6.49227 1.00979 -2.74376
upperback -1.60646 1.4256 4.44056
thorax 1.79711 0.705261 6.2829
lowerneck -26.2828 -4.47067 -2.48677
upperneck 21.5265 -6.12765 3.08992
head 11.5346 -2.55075 0.490701
rclavicle 9.0579e-015 5.74488e-014
rhumerus -30.1469 -3.65967 -81.0287
rradius 29.8017
rwrist -12.8941
rhand -21.5778 8.27403
rfingers 7.12502
rthumb 4.81642 -21.6512
lclavicle 9.0579e-015 5.74488e-014
lhumerus -31.7617 8.95855 82.7984
lradius 30.4138
lwrist 9.51282
lhand -9.60479 30.9833
lfingers 7.12502
lthumb 16.3642 60.3129
rfemur -15.7248 -0.305007 23.0924
rtibia 30.1522
rfoot -14.7943 -5.26267
rtoes -7.95069
lfemur -11.966 2.25123 -11.85
ltibia 32.0382
lfoot -19.7805 13.092
ltoes -10.2644
512
root 1.78328 17.8687 -6.99199 6.9012 -5.80109 -7.47858
lowerback -6.43267 1.09038 -2.72704
upperback -1.75793 1.5406 4.19127
thorax 1.59994 0.771092 6.01222
lowerneck -26.2552 -4.52628 -2.1297
upperneck 21.7788 -6.36618 3.10466
head 11.6216 -2.62163 0.395117
rclavicle 3.58114e-014 -5.1684e-015
rhumerus -30.2435 -3.76257 -81.5144
rradius 30.0577
rwrist -12.7253
rhand -21.0294 8.27292
rfingers 7.12502
rthumb 5.34594 -21.6396
lclavicle 3.58114e-014 -5.1684e-015
lhumerus -31.7342 7.60962 83.0789
lradius 30.9298
lwrist 10.132
lhand -9.42732 31.2603
lfingers 7.12502
lthumb 16.5351 60.5757
rfemur -15.7512 -0.366408 23.2204
rtibia 30.2111
rfoot -15.1441 -5.2301
rtoes -4.38061
lfemur -12.0238 2.21079 -11.7222
ltibia 31.9572
lfoot -19.5335 13.0965
ltoes -11.0296
513
root 1.7437 17.8697 -6.99471 6.86209 -5.58213 -7.41238
lowerback -6.40361 1.05925 -2.88624
upperback -1.86042 1.51228 4.13805
thorax 1.4782 0.762002 6.04241
lowerneck -26.0359 -4.51932 -2.06715
upperneck 21.8742 -6.39572 3.12143
head 11.6172 -2.62918 0.389203
rclavicle 9.83505e-015 -1.02498e-014
rhumerus -30.29 -3.31723 -81.867
rradius 30.307
rwrist -12.7045
rhand -20.5675 8.68357
rfingers 7.12502
rthumb 5.79189 -21.2173
lclavicle 9.83505e-015 -1.02498e-014
lhumerus -31.85 6.66595 83.532
lradius 31.5923
lwrist 10.7044
lhand -9.36521 31.7802
lfingers 7.12502
lthumb 16.5949 61.0907
rfemur -15.6971 -0.275496 23.3105
rtibia 30.2417
rfoot -15.3218 -5.3366
rtoes -1.98114
lfemur -12.011 2.17916 -11.6084
ltibia 31.891
lfoot -19.4216 12.9305
ltoes -10.4509
514
root 1.71515 17.8727 -7.00033 6.92148 -5.51262 -7.38326
lowerback -6.57999 1.03418 -2.9386
upperback -1.85755 1.48295 4.18079
thorax 1.58045 0.744639 6.12125
lowerneck -25.922 -4.47314 -2.14547
upperneck 21.8578 -6.29349 3.09465
head 11.5886 -2.59587 0.41211
rclavicle -1.49884e-015 -4.05024e-015
rhumerus -30.1126 -2.57948 -82.1349
rradius 30.5591
rwrist -12.834
rhand -20.274 9.17823
rfingers 7.12502
rthumb 6.07533 -20.7147
lclavicle -1.49884e-015 -4.05024e-015
lhumerus -31.7586 6.20708 84.0539
lradius 32.0814
lwrist 10.9244
lhand -9.21305 31.7933
lfingers 7.12502
lthumb 16.7413 61.0915
rfemur -15.7706 -0.296917 23.3776
rtibia 30.2178
rfoot -15.2439 -5.24527
rtoes -1.67423
lfemur -12.1085 2.13191 -11.5295
ltibia 31.8634
lfoot -19.3875 12.8227
ltoes -9.62106
515
root 1.68161 17.8727 -7.00156 6.82927 -5.30463 -7.3571
lowerback -6.33773 0.960627 -2.94427
upperback -2.0343 1.38658 4.14652
thorax 1.27551 0.707842 6.07088
lowerneck -25.6265 -4.41967 -2.14941
upperneck 21.9593 -6.23167 3.10578
head 11.5718 -2.57015 0.43218
rclavicle -1.26848e-014 -1.90709e-015
rhumerus -30.2216 -2.0215 -82.5085
rradius 30.7199
rwrist -12.82
rhand -19.966 9.70765
rfingers 7.12502
rthumb 6.37267 -20.1765
lclavicle -1.26848e-014 -1.90709e-015
lhumerus -31.9857 5.72077 84.3105
lradius 32.4788
lwrist 11.0171
lhand -9.00853 31.3577
lfingers 7.12502
lthumb 16.9382 60.6391
rfemur -15.6108 -0.293383 23.4843
rtibia 30.156
rfoot -15.2902 -5.41868
rtoes -2.00391
lfemur -12.0794 2.34055 -11.384
ltibia 31.8772
lfoot -19.3794 12.447
ltoes -9.85253
516
root 1.64506 17.8726 -7.00441 6.76274 -4.99177 -7.35658
lowerback -6.30142 0.788656 -3.05269
upperback -2.02591 1.16091 4.26491
thorax 1.28738 0.594491 6.24253
lowerneck -25.6853 -4.36887 -2.41585
upperneck 22.0486 -6.08662 3.20278
head 11.6254 -2.51266 0.535077
rclavicle -8.60093e-015 -1.41634e-014
rhumerus -29.9735 -1.13361 -82.8197
rradius 30.9957
rwrist -12.7073
rhand -19.8217 9.54111
rfingers 7.12502
rthumb 6.51199 -20.3388
lclavicle -8.60093e-015 -1.41634e-014
lhumerus -31.8896 5.49338 84.7386
lradius 32.8426
lwrist 11.1567
lhand -8.85877 31.273
lfingers 7.12502
lthumb 17.0824 60.542
rfemur -15.47 -0.197827 23.6434
rtibia 30.0973
rfoot -15.4779 -5.68001
rtoes -0.434477
lfemur -12.1129 2.63161 -11.1871
ltibia 31.9128
lfoot -19.3246 12.0634
ltoes -10.8864
